<svg width="30" height="170" viewBox="0 0 30 170" fill="none" xmlns="http://www.w3.org/2000/svg">
<g id="Card 01" clip-path="url(#clip0_1_631)">
<rect id="Rectangle" x="-255" width="285" height="170" rx="15" fill="url(#paint0_linear_1_631)"/>
<g id="VISA Logo">
<rect id="Mask" opacity="0.01" x="-255" width="285" height="170" rx="10" fill="white"/>
<mask id="mask0_1_631" style="mask-type:luminance" maskUnits="userSpaceOnUse" x="-255" y="0" width="285" height="170">
<rect id="Mask_2" x="-255" width="285" height="170" rx="10" fill="white"/>
</mask>
<g mask="url(#mask0_1_631)">
<g id="VISA Logo_2" opacity="0.101761">
<path id="Shape" fill-rule="evenodd" clip-rule="evenodd" d="M51.8471 91.9022C51.6253 109.726 67.7231 119.68 79.852 125.601C92.3137 131.67 96.5045 135.567 96.4552 140.995C96.3566 149.308 86.5081 152.972 77.2882 153.107C65.8461 153.358 54.5314 150.665 44.4268 145.287L38.6336 172.424C49.9741 176.844 62.0487 179.075 74.219 178.998C107.832 178.998 129.822 162.395 129.945 136.653C130.026 117.088 113.819 108.571 100.866 101.763C92.1856 97.2014 84.9669 93.4077 85.0906 87.5726C85.2015 83.1445 89.417 78.4202 98.6493 77.2114C109.474 76.1734 120.378 78.0872 130.204 82.7497L135.825 56.5013C126.248 52.8945 116.104 51.0314 105.872 51C74.2313 51 51.9827 67.8246 51.7978 91.9268L51.8471 91.9022ZM189.85 53.2696C183.903 53.246 178.538 56.8383 176.291 62.348L128.22 177.062H161.808L168.489 158.559H209.535L213.417 177.062H243L217.115 53.2573H189.936L189.85 53.2696ZM204.321 133.236L194.632 86.7092L194.595 86.6845L177.77 133.236H204.321ZM11.1218 53.2449L-15.3547 177.049H16.6931L43.1572 53.2449H11.1218ZM-69.5155 137.516L-36.235 53.2449H-36.2227H-2.62181L-54.4653 177.049H-88.2881L-113.815 78.2475C-114.283 73.5428 -117.165 69.421 -121.421 67.3683C-131.466 62.5499 -142.075 59.011 -153 56.8344L-152.236 53.2449H-97.8038C-90.4355 53.2173 -84.1512 58.5784 -83.0125 65.8634L-69.5155 137.516Z" fill="white"/>
</g>
</g>
</g>
<g id="VISA Logo_3">
<path id="Shape_2" fill-rule="evenodd" clip-rule="evenodd" d="M-6.381 18.317C-6.399 19.762 -5.093 20.569 -4.109 21.049C-3.098 21.541 -2.758 21.857 -2.762 22.297C-2.77 22.971 -3.569 23.268 -4.317 23.279C-5.24528 23.2993 -6.16323 23.081 -6.983 22.645L-7.453 24.845C-6.53296 25.2034 -5.55336 25.3842 -4.566 25.378C-1.839 25.378 -0.0550003 24.032 -0.0450001 21.945C-0.038414 20.3589 -1.35332 19.6683 -2.40419 19.1164C-3.10839 18.7466 -3.69403 18.439 -3.684 17.966C-3.675 17.607 -3.333 17.224 -2.584 17.126C-1.70578 17.0418 -0.821161 17.197 -0.0240002 17.575L0.431999 15.447C-0.344915 15.1546 -1.16788 15.0035 -1.998 15.001C-4.565 15.001 -6.37 16.365 -6.385 18.319L-6.381 18.317ZM4.815 15.185C4.33256 15.1831 3.89729 15.4743 3.715 15.921L-0.184999 25.221H2.54L3.082 23.721H6.412L6.727 25.221H9.127L7.027 15.184H4.822L4.815 15.185ZM5.989 21.668L5.203 17.896L5.2 17.894L3.835 21.668H5.989ZM-9.685 15.183L-11.833 25.22H-9.233L-7.086 15.183H-9.685ZM-16.227 22.015L-13.527 15.183H-13.526H-10.8L-15.006 25.22H-17.75L-19.821 17.21C-19.859 16.8286 -20.0927 16.4944 -20.438 16.328C-21.2529 15.9373 -22.1137 15.6504 -23 15.474L-22.938 15.183H-18.522C-17.9242 15.1807 -17.4144 15.6154 -17.322 16.206L-16.227 22.015Z" fill="white"/>
</g>
</g>
<defs>
<linearGradient id="paint0_linear_1_631" x1="-261.809" y1="176.211" x2="22.021" y2="198.946" gradientUnits="userSpaceOnUse">
<stop stop-color="#1A87DD"/>
<stop offset="1" stop-color="#45A7F5"/>
</linearGradient>
<clipPath id="clip0_1_631">
<rect width="285" height="170" fill="white" transform="translate(-255)"/>
</clipPath>
</defs>
</svg>
