<svg width="40" height="40" viewBox="0 0 40 40" fill="none" xmlns="http://www.w3.org/2000/svg">
<g id="Request Button">
<rect id="Rectangle" width="40" height="40" rx="10" fill="#1A87DD"/>
<g id="request_icon">
<rect id="Rectangle_2" opacity="0.01" x="30" y="10" width="20" height="20" transform="rotate(90 30 10)" fill="white"/>
<path id="Path" d="M21.206 25.1385L25.7326 15.7256C25.9233 15.329 25.8394 14.881 25.5138 14.5564C25.188 14.2318 24.6862 14.0961 24.204 14.2022L20.3962 15.04V19.1422C20.3962 19.3309 20.2188 19.484 20 19.484C19.7813 19.484 19.6039 19.331 19.6039 19.1422V15.04L15.796 14.2022C15.3139 14.0961 14.812 14.2318 14.4863 14.5564C14.16 14.8817 14.0771 15.3297 14.2675 15.7256L18.7941 25.1386C19.0002 25.5671 19.4623 25.8334 20 25.8334C20.5378 25.8334 20.9999 25.5671 21.206 25.1385Z" fill="white"/>
</g>
</g>
</svg>
