<svg width="40" height="40" viewBox="0 0 40 40" fill="none" xmlns="http://www.w3.org/2000/svg">
<g id="Send Button">
<rect id="Rectangle" width="40" height="40" rx="10" fill="#F8BB18"/>
<g id="send_icon">
<rect id="Rectangle_2" opacity="0.01" x="10" y="30" width="20" height="20" transform="rotate(-90 10 30)" fill="white"/>
<path id="Path" d="M18.794 14.8615L14.2674 24.2744C14.0767 24.671 14.1606 25.119 14.4862 25.4436C14.812 25.7682 15.3138 25.9039 15.796 25.7978L19.6038 24.96V20.8578C19.6038 20.6691 19.7812 20.516 20 20.516C20.2187 20.516 20.3961 20.669 20.3961 20.8578V24.96L24.204 25.7978C24.6861 25.9039 25.188 25.7682 25.5137 25.4436C25.84 25.1183 25.9229 24.6703 25.7325 24.2744L21.2059 14.8614C20.9998 14.4329 20.5377 14.1666 20 14.1666C19.4622 14.1666 19.0001 14.4329 18.794 14.8615Z" fill="#1A1A1A"/>
</g>
</g>
</svg>
