<svg width="106" height="137" viewBox="0 0 106 137" fill="none" xmlns="http://www.w3.org/2000/svg">
<g id="Logo">
<path id="Vector_2" d="M68 0H38C24.1929 0 13 11.1929 13 25V55C13 68.8071 24.1929 80 38 80H68C81.8071 80 93 68.8071 93 55V25C93 11.1929 81.8071 0 68 0Z" fill="white"/>
<path id="Vector_3" d="M49.7514 23.6066L37.5572 53.1133C37.0434 54.3564 37.2694 55.7608 38.1467 56.7783C39.0242 57.7958 40.3762 58.2213 41.675 57.8888L51.9329 55.2624V42.4034C51.9329 41.8117 52.4107 41.3319 53.0001 41.3319C53.5894 41.3319 54.0673 41.8116 54.0673 42.4034V55.2624L64.3251 57.8888C65.624 58.2213 66.976 57.7958 67.8534 56.7783C68.7325 55.7587 68.9557 54.3542 68.4429 53.1132L56.2487 23.6065C55.6936 22.2631 54.4487 21.4286 53.0001 21.4286C51.5515 21.4286 50.3066 22.2631 49.7514 23.6066Z" fill="#1A87DD"/>
</g>
</svg>
